<svg width="20" height="21" viewBox="0 0 20 21" fill="none" xmlns="http://www.w3.org/2000/svg">
<g clip-path="url(#clip0_2_4166)">
<path d="M16.133 3.20325C15.2886 2.40325 14.3441 1.78103 13.2997 1.33659C12.2552 0.892143 11.1552 0.66992 9.99967 0.66992C8.84412 0.66992 7.73301 0.892143 6.66634 1.33659C5.59967 1.78103 4.66634 2.40325 3.86634 3.20325C3.06634 4.00325 2.44412 4.93659 1.99967 6.00325C1.55523 7.06992 1.33301 8.18103 1.33301 9.33659C1.33301 10.4921 1.55523 11.5921 1.99967 12.6366C2.44412 13.681 3.06634 14.6255 3.86634 15.4699L8.46634 20.0699C8.86634 20.4699 9.36634 20.6699 9.96634 20.6699C10.5663 20.6699 11.0886 20.4699 11.533 20.0699L16.133 15.4699C16.933 14.6255 17.5552 13.681 17.9997 12.6366C18.4441 11.5921 18.6663 10.4921 18.6663 9.33659C18.6663 8.18103 18.4441 7.06992 17.9997 6.00325C17.5552 4.93659 16.933 4.00325 16.133 3.20325ZM15.2663 14.6033L10.6663 19.2033C10.4886 19.381 10.2663 19.4699 9.99967 19.4699C9.73301 19.4699 9.48856 19.381 9.26634 19.2033L4.66634 14.6033C3.95523 13.8921 3.4219 13.081 3.06634 12.1699C2.71079 11.2588 2.53301 10.3033 2.53301 9.30326C2.53301 8.30325 2.71079 7.3477 3.06634 6.43659C3.4219 5.52548 3.95523 4.72548 4.66634 4.03659C5.37745 3.3477 6.18856 2.81437 7.09967 2.43659C8.01079 2.05881 8.96634 1.86992 9.96634 1.86992C10.9663 1.86992 11.9219 2.05881 12.833 2.43659C13.7441 2.81437 14.5552 3.33659 15.2663 4.00325C16.2441 4.98103 16.8997 6.11437 17.233 7.40325C17.5663 8.69214 17.5663 9.98103 17.233 11.2699C16.8997 12.5588 16.2441 13.6699 15.2663 14.6033ZM9.99967 6.20325C9.15523 6.20325 8.4219 6.51437 7.79967 7.13659C7.17745 7.75881 6.86634 8.49214 6.86634 9.33659C6.86634 10.181 7.17745 10.9033 7.79967 11.5033C8.4219 12.1033 9.15523 12.4033 9.99967 12.4033C10.8441 12.4033 11.5663 12.1033 12.1663 11.5033C12.7663 10.9033 13.0663 10.181 13.0663 9.33659C13.0663 8.49214 12.7663 7.75881 12.1663 7.13659C11.5663 6.51437 10.8441 6.20325 9.99967 6.20325ZM9.99967 11.2699C9.46634 11.2699 9.01079 11.081 8.63301 10.7033C8.25523 10.3255 8.06634 9.86992 8.06634 9.33659C8.06634 8.80325 8.25523 8.3477 8.63301 7.96992C9.01079 7.59214 9.46634 7.40325 9.99967 7.40325C10.533 7.40325 10.9886 7.59214 11.3663 7.96992C11.7441 8.3477 11.933 8.80325 11.933 9.33659C11.933 9.86992 11.7441 10.3255 11.3663 10.7033C10.9886 11.081 10.533 11.2699 9.99967 11.2699Z" fill="#1A1A1A"/>
</g>
<defs>
<clipPath id="clip0_2_4166">
<rect width="20" height="20" fill="white" transform="matrix(1 0 0 -1 0 20.6699)"/>
</clipPath>
</defs>
</svg>
