<svg width="17" height="17" viewBox="0 0 17 17" fill="none" xmlns="http://www.w3.org/2000/svg">
<g clip-path="url(#clip0_2_4519)">
<path d="M8.69477 7.98333C9.76143 7.98333 10.6681 7.60111 11.4148 6.83667C12.1614 6.07222 12.5348 5.15667 12.5348 4.09C12.5348 3.02333 12.1614 2.11667 11.4148 1.37C10.6681 0.623333 9.76143 0.25 8.69477 0.25C7.6281 0.25 6.72143 0.623333 5.97477 1.37C5.2281 2.11667 4.85477 3.02333 4.85477 4.09C4.85477 5.15667 5.2281 6.07222 5.97477 6.83667C6.72143 7.60111 7.6281 7.98333 8.69477 7.98333ZM6.61477 2.06333C7.18365 1.49444 7.8681 1.21 8.6681 1.21C9.4681 1.21 10.1614 1.49444 10.7481 2.06333C11.3348 2.63222 11.6281 3.31667 11.6281 4.11667C11.6281 4.91667 11.3437 5.60111 10.7748 6.17C10.2059 6.73889 9.51254 7.02333 8.69477 7.02333C7.87699 7.02333 7.18365 6.73889 6.61477 6.17C6.04588 5.60111 5.76143 4.91667 5.76143 4.11667C5.76143 3.31667 6.04588 2.63222 6.61477 2.06333ZM15.4148 12.57C15.4148 12.25 15.3792 11.9033 15.3081 11.53C15.237 11.1567 15.1481 10.8189 15.0414 10.5167C14.9348 10.2144 14.7925 9.90333 14.6148 9.58333C14.437 9.26333 14.2325 8.98778 14.0014 8.75667C13.7703 8.52556 13.477 8.33889 13.1214 8.19667C12.7659 8.05444 12.3748 7.98333 11.9481 7.98333C11.8059 7.98333 11.5925 8.07222 11.3081 8.25L10.6681 8.67667C10.4548 8.81889 10.1703 8.94333 9.81477 9.05C9.45921 9.15667 9.11254 9.21 8.77477 9.21C8.43699 9.21 8.09032 9.15667 7.73477 9.05C7.37921 8.94333 7.11254 8.81889 6.93477 8.67667L6.24143 8.25C5.99254 8.07222 5.79699 7.98333 5.65477 7.98333C5.2281 7.98333 4.83699 8.05444 4.48143 8.19667C4.12588 8.33889 3.82365 8.52556 3.57477 8.75667C3.32588 8.98778 3.11254 9.26333 2.93477 9.58333C2.75699 9.90333 2.61477 10.2233 2.5081 10.5433C2.40143 10.8633 2.32143 11.2011 2.2681 11.5567C2.21477 11.9122 2.17921 12.2411 2.16143 12.5433C2.14365 12.8456 2.13477 13.1567 2.13477 13.4767C2.13477 14.33 2.39254 15.0056 2.9081 15.5033C3.42365 16.0011 4.1081 16.25 4.96143 16.25H12.6414C13.4592 16.25 14.1348 16.0011 14.6681 15.5033C15.2014 15.0056 15.4681 14.33 15.4681 13.4767C15.4681 13.1567 15.4503 12.8544 15.4148 12.57ZM14.0281 14.81C13.6725 15.13 13.2103 15.29 12.6414 15.29H4.96143C4.35699 15.29 3.88588 15.13 3.5481 14.81C3.21032 14.49 3.04143 14.0456 3.04143 13.4767L3.09477 12.6233C3.09477 12.3389 3.13032 12.0367 3.20143 11.7167C3.27254 11.3967 3.34365 11.1033 3.41477 10.8367C3.48588 10.57 3.59254 10.3122 3.73477 10.0633C3.87699 9.81444 4.03699 9.61 4.21477 9.45C4.39254 9.29 4.59699 9.16556 4.8281 9.07667C5.05921 8.98778 5.29921 8.94333 5.5481 8.94333L6.40143 9.47667C6.68588 9.65444 7.04143 9.80556 7.4681 9.93C7.89477 10.0544 8.33032 10.1167 8.77477 10.1167C9.21921 10.1167 9.66365 10.0544 10.1081 9.93C10.5525 9.80556 10.8992 9.65444 11.1481 9.47667L12.0014 8.94333C12.2859 8.94333 12.5437 8.98778 12.7748 9.07667C13.0059 9.16556 13.2014 9.29 13.3614 9.45C13.5214 9.61 13.6725 9.81444 13.8148 10.0633C13.957 10.3122 14.0725 10.57 14.1614 10.8367C14.2503 11.1033 14.3214 11.3967 14.3748 11.7167C14.4281 12.0367 14.4725 12.3389 14.5081 12.6233V13.4767C14.5081 14.0456 14.3481 14.49 14.0281 14.81Z" fill="white"/>
</g>
<defs>
<clipPath id="clip0_2_4519">
<rect width="15.95" height="16" fill="white" transform="matrix(1 0 0 -1 0.798828 16.25)"/>
</clipPath>
</defs>
</svg>
