<svg width="62" height="61" viewBox="0 0 62 61" fill="none" xmlns="http://www.w3.org/2000/svg">
<path d="M31 60.8999C47.5685 60.8999 61 47.4684 61 30.8999C61 14.3314 47.5685 0.899902 31 0.899902C14.4315 0.899902 1 14.3314 1 30.8999C1 47.4684 14.4315 60.8999 31 60.8999Z" fill="#E7C873"/>
<path fill-rule="evenodd" clip-rule="evenodd" d="M44.4207 20.0212C44.5107 19.4287 44.2582 18.8349 43.7695 18.4862C43.2807 18.1387 42.637 18.0949 42.1057 18.3737C37.8545 20.6062 22.9832 28.4137 18.4157 30.8112C17.852 31.1062 17.5195 31.7087 17.5682 32.3424C17.617 32.9762 18.037 33.5212 18.6395 33.7274C20.4182 34.3362 22.592 35.0824 26.0007 36.2512L39.7507 23.3999L28.6232 37.1499C32.2582 38.3962 37.942 40.3449 39.3682 40.8337C39.8145 40.9874 40.307 40.9337 40.7107 40.6899C41.1145 40.4449 41.3882 40.0337 41.4595 39.5662L44.4207 20.0212Z" fill="#1F4B43"/>
<path fill-rule="evenodd" clip-rule="evenodd" d="M27.04 37.9287V42.0162C27.04 42.6437 27.4088 43.2125 27.98 43.4687C28.5525 43.7262 29.2213 43.6237 29.69 43.2062L33.2375 40.0537L27.04 37.9287Z" fill="#1F4B43"/>
</svg>
