<svg width="15" height="14" viewBox="0 0 15 14" fill="none" xmlns="http://www.w3.org/2000/svg">
<g clip-path="url(#clip0_2_4137)">
<path d="M0.877444 6.39835H12.8881L8.28902 2.01911C8.0482 1.78979 8.03887 1.4088 8.26825 1.16805C8.49733 0.927602 8.87842 0.917972 9.11954 1.14729L14.3719 6.14887C14.5991 6.37637 14.7247 6.67852 14.7247 7.00023C14.7247 7.32162 14.5991 7.62407 14.3613 7.8615L9.11925 12.8529C9.00275 12.9638 8.85344 13.019 8.70413 13.019C8.54519 13.019 8.38625 12.9564 8.26795 12.8321C8.03857 12.5914 8.0479 12.2107 8.28872 11.9814L12.9071 7.6021H0.877444C0.54511 7.6021 0.275391 7.33246 0.275391 7.00023C0.275391 6.66799 0.54511 6.39835 0.877444 6.39835Z" fill="#1A1A1A"/>
</g>
<defs>
<clipPath id="clip0_2_4137">
<rect width="15" height="12.84" fill="white" transform="translate(0 0.580078)"/>
</clipPath>
</defs>
</svg>
