<svg width="14" height="13" viewBox="0 0 14 13" fill="none" xmlns="http://www.w3.org/2000/svg">
<g clip-path="url(#clip0_2_4457)">
<path d="M0.8125 6.07485H12.0341L7.73716 1.9821C7.51216 1.76778 7.50344 1.41172 7.71775 1.18672C7.93178 0.962 8.28784 0.953 8.51312 1.16731L13.4204 5.84169C13.6327 6.05432 13.75 6.33669 13.75 6.63735C13.75 6.93772 13.6327 7.22038 13.4105 7.44229L8.51284 12.1071C8.404 12.2109 8.2645 12.2624 8.125 12.2624C7.9765 12.2624 7.828 12.2039 7.71747 12.0877C7.50316 11.8627 7.51188 11.5069 7.73688 11.2926L12.0518 7.19985H0.8125C0.502 7.19985 0.25 6.94785 0.25 6.63735C0.25 6.32685 0.502 6.07485 0.8125 6.07485Z" fill="#1A1A1A"/>
</g>
<defs>
<clipPath id="clip0_2_4457">
<rect width="14" height="12" fill="white" transform="translate(0 0.779785)"/>
</clipPath>
</defs>
</svg>
